<?xml version="1.0" ?><svg height="500" id="svg2" version="1.1" width="500" xmlns="http://www.w3.org/2000/svg" xmlns:cc="http://creativecommons.org/ns#" xmlns:dc="http://purl.org/dc/elements/1.1/" xmlns:inkscape="http://www.inkscape.org/namespaces/inkscape" xmlns:rdf="http://www.w3.org/1999/02/22-rdf-syntax-ns#" xmlns:sodipodi="http://sodipodi.sourceforge.net/DTD/sodipodi-0.dtd" xmlns:svg="http://www.w3.org/2000/svg"><defs id="defs4"/><g id="layer1" transform="translate(0,-552.36218)"><rect height="500" id="rect2990-1" rx="250" ry="250" style="fill:#01aef2;fill-opacity:1;stroke:none" width="500" x="0" y="552.36218"/><path d="M 178.52632,642.36218 C 129.67731,642.36218 90,681.43235 90,729.59902 c 0,16.16667 4.405409,31.24123 12.15789,44.1579 -2.00064,9.74999 -3.105258,19.92982 -3.105258,30.26315 0,83.16666 68.380868,150.5 152.657898,150.5 9.5864,0 18.91816,-0.83333 27.92105,-2.5 12.50401,6.58334 26.75394,10.34211 41.8421,10.34211 48.93236,0 88.52632,-39.07018 88.52632,-87.23684 0.0834,-13.91667 -3.26564,-27.09649 -9.18421,-38.76316 2.33409,-10.41667 3.52632,-21.17982 3.52632,-32.26316 0,-83.08332 -68.37647,-150.47368 -152.73685,-150.47368 -8.91953,0 -17.57621,0.74123 -26.07894,2.15789 -13.58768,-8.5 -29.66111,-13.42105 -47,-13.42105 z m 71.8421,55.76316 c 13.67105,0 25.60206,1.57894 35.60526,4.57895 10.08656,3.08332 18.48468,7.25439 25.23685,12.42105 6.6688,5.16666 11.67443,10.64474 14.8421,16.39473 3.16769,5.83334 4.76316,11.57456 4.76316,17.1579 0,5.33333 -2.09514,10.2763 -6.26316,14.52632 -4.168,4.24999 -9.40588,6.5 -15.65789,6.5 -5.66849,0 -10.09989,-1.33335 -13.18421,-4 -2.83424,-2.5 -5.82791,-6.36404 -9.07895,-11.94737 -3.83457,-7.08334 -8.40621,-12.73685 -13.6579,-16.73685 -5.16832,-3.83333 -13.68918,-5.8421 -25.52631,-5.8421 -10.92017,0 -19.83562,2.19736 -26.42105,6.44737 -6.33537,4.08332 -9.42106,8.81141 -9.42106,14.39473 0,3.41668 1.02127,6.26317 3.10527,8.76316 2.16736,2.58334 5.16102,4.92544 9.07894,6.84211 4.00129,2 8.15221,3.57456 12.23685,4.65789 4.25136,1.16667 11.35214,2.91229 21.10526,5.07895 12.42066,2.58333 23.75994,5.60088 33.76316,8.68421 10.16992,3.25 18.90998,7.15351 26.07894,11.73684 7.33569,4.66666 13.09516,10.75439 17.26316,17.92106 4.08465,7.16666 6.1579,16.16666 6.1579,26.5 0.33344,12.58333 -3.2521,23.92981 -10.42106,33.76315 -7.0856,9.83333 -17.49566,17.63158 -31,23.13158 -13.42096,5.5 -29.42394,8.26316 -47.76315,8.26316 -21.9237,0 -40.26293,-3.81579 -54.68421,-11.31579 -10.25329,-5.5 -18.68213,-12.85965 -25.18421,-22.02632 -6.50209,-9.16666 -9.76316,-18.32456 -9.76316,-27.15789 0,-5.5 2.20041,-10.23684 6.36842,-14.23684 4.16801,-3.83333 9.58569,-5.84211 15.92105,-5.84211 5.25169,0 9.72691,1.49562 13.39474,4.57895 3.50113,2.91667 6.50361,7.25439 8.92105,12.92105 2.75088,6.08334 5.70075,11.23247 8.86842,15.31579 3.00097,3.91667 7.23508,7.17983 12.73684,9.76316 5.58512,2.58333 12.9883,3.92105 22.1579,3.92105 12.58738,0 22.93173,-2.67105 30.68421,-7.92105 7.66913,-5.08333 11.3421,-11.26317 11.3421,-18.76316 0,-5.91667 -1.91976,-10.57018 -5.92105,-14.23684 -4.16801,-3.83333 -9.58994,-6.81579 -16.3421,-8.81579 -6.9189,-2.16666 -16.3296,-4.45176 -28,-6.86842 -15.83842,-3.33333 -29.24656,-7.3158 -40,-11.81579 -10.92017,-4.58333 -19.76109,-10.97806 -26.26316,-18.89474 -6.58545,-8.08332 -9.84211,-18.26755 -9.84211,-30.18421 0,-11.41667 3.50658,-21.58772 10.34211,-30.42105 6.83553,-8.75 16.73708,-15.57017 29.65789,-20.23684 12.67073,-4.66666 27.75771,-7 44.76316,-7 z" id="rect2989-7" style="fill:#ffffff;fill-opacity:1;stroke:none"/><g id="layer1-9" transform="translate(-549.00515,80.294372)"/><g id="layer1-6" transform="translate(-575.71429,39.999999)"/></g></svg>