<?xml version="1.0" encoding="UTF-8"?>
<svg xmlns="http://www.w3.org/2000/svg" viewBox="0 0 40 40">
  <defs>
    <style>.cls-1{fill:#ffc107;opacity:0.7;}.cls-2{fill:#212121;}</style>
  </defs>
  <title>Asset 20</title>
  <g id="Layer_2" data-name="Layer 2">
    <g id="Layer_1-2" data-name="Layer 1">
      <circle class="cls-1" cx="17.12" cy="23" r="17"></circle>
      <path class="cls-2" d="M32,2.41a1.1,1.1,0,0,0-.78-.32,1.16,1.16,0,0,0-.77.32L14.82,18.05l-.05.05,0,0-.08.1s0,0,0,0l-.05.09,0,0a.79.79,0,0,0,0,.09s0,0,0,0l-2.78,8.4A1,1,0,0,0,12,28a1.12,1.12,0,0,0,.77.32,1,1,0,0,0,.35-.06l8.38-2.79h0l.1-.05s0,0,0,0l.11-.06.1-.08s0,0,0,0,0,0,.05,0L37.59,9.52a1.09,1.09,0,0,0,0-1.54ZM16.06,20.85l3.09,3.09-4.63,1.54Zm5.11,2-4-4,14.1-14.1,4,4Z"></path>
      <path class="cls-2" d="M38.91,13a1.09,1.09,0,0,0-1.09,1.09V34.54a3.29,3.29,0,0,1-3.28,3.28H5.46a3.29,3.29,0,0,1-3.28-3.28V5.46A3.29,3.29,0,0,1,5.46,2.18H25.88a1.09,1.09,0,0,0,0-2.18H5.46A5.47,5.47,0,0,0,0,5.46V34.54A5.47,5.47,0,0,0,5.46,40H34.54A5.47,5.47,0,0,0,40,34.54V14.12A1.09,1.09,0,0,0,38.91,13Z"></path>
    </g>
  </g>
</svg>
