<?xml version="1.0" encoding="UTF-8"?>
<svg xmlns="http://www.w3.org/2000/svg" viewBox="0 0 40.6 40.3">
  <defs>
    <style>.cls-1{fill:#1ec625;opacity:0.7;}.cls-2{fill:#212121;stroke:#212121;stroke-miterlimit:10;stroke-width:0.6px;}</style>
  </defs>
  <title>Asset 34</title>
  <g id="Layer_2" data-name="Layer 2">
    <g id="Layer_1-2" data-name="Layer 1">
      <circle class="cls-1" cx="17.3" cy="23.3" r="17"></circle>
      <g id="surface1">
        <path class="cls-2" d="M3,32.87H4.3V31.51H3a1.34,1.34,0,0,1-1.34-1.35V3A1.34,1.34,0,0,1,3,1.66H32.3A1.33,1.33,0,0,1,33.63,3V4.37H35V3A2.7,2.7,0,0,0,32.3.3H3A2.69,2.69,0,0,0,.3,3V30.16A2.68,2.68,0,0,0,3,32.87Z"></path>
        <path class="cls-2" d="M3,3H4.3V4.37H3Z"></path>
        <path class="cls-2" d="M5.63,3H7V4.37H5.63Z"></path>
        <path class="cls-2" d="M8.3,3H9.63V4.37H8.3Z"></path>
        <path class="cls-2" d="M5.63,35.59A2.7,2.7,0,0,0,8.3,38.3H37.63a2.69,2.69,0,0,0,2.67-2.71V8.44a2.68,2.68,0,0,0-2.67-2.71H8.3A2.69,2.69,0,0,0,5.63,8.44ZM7,8.44A1.33,1.33,0,0,1,8.3,7.09H37.63A1.34,1.34,0,0,1,39,8.44V35.59a1.34,1.34,0,0,1-1.34,1.35H8.3A1.33,1.33,0,0,1,7,35.59Z"></path>
        <path class="cls-2" d="M8.3,8.44H9.63V9.8H8.3Z"></path>
        <path class="cls-2" d="M11,8.44H12.3V9.8H11Z"></path>
        <path class="cls-2" d="M13.63,8.44H15V9.8H13.63Z"></path>
        <path class="cls-2" d="M8.3,11.16H37.63v1.35H8.3Z"></path>
        <path class="cls-2" d="M8.3,14.55h5.33v1.36H8.3Z"></path>
        <path class="cls-2" d="M8.3,17.26h4v1.36h-4Z"></path>
        <path class="cls-2" d="M23,20a4.75,4.75,0,1,0,4.66,4.75A4.71,4.71,0,0,0,23,20Zm0,8.14a3.39,3.39,0,1,1,3.33-3.39A3.37,3.37,0,0,1,23,28.12Z"></path>
        <path class="cls-2" d="M33.63,22.69A.67.67,0,0,0,33,22H31.2a8.48,8.48,0,0,0-.52-1.29l1.24-1.27a.69.69,0,0,0,0-1l-2.83-2.88a.66.66,0,0,0-.94,0l-1.24,1.27a9.62,9.62,0,0,0-1.28-.54V14.55a.67.67,0,0,0-.66-.68H21a.68.68,0,0,0-.67.68v1.79a9.49,9.49,0,0,0-1.27.54l-1.25-1.27a.66.66,0,0,0-.94,0L14,18.49a.69.69,0,0,0,0,1l1.25,1.27c-.06.11-.11.22-.16.33a7.57,7.57,0,0,0-.37,1H13a.68.68,0,0,0-.67.68v4.07a.67.67,0,0,0,.67.68h1.76a8.64,8.64,0,0,0,.53,1.3L14,30a.69.69,0,0,0,0,1l2.83,2.88a.66.66,0,0,0,.94,0L19,32.58a8.3,8.3,0,0,0,1.27.53v1.8a.68.68,0,0,0,.67.68h4a.67.67,0,0,0,.66-.68v-1.8a8.42,8.42,0,0,0,1.28-.53l1.24,1.27a.66.66,0,0,0,.94,0L31.92,31a.69.69,0,0,0,0-1l-1.24-1.27a8.6,8.6,0,0,0,.52-1.3H33a.66.66,0,0,0,.66-.68Zm-1.33,3.4H30.7a.66.66,0,0,0-.64.5,7.31,7.31,0,0,1-.78,1.92.69.69,0,0,0,.1.83l1.13,1.15-1.89,1.92L27.5,31.26a.67.67,0,0,0-.81-.11,7.31,7.31,0,0,1-1.89.8.67.67,0,0,0-.5.65v1.63H21.63V32.6a.66.66,0,0,0-.5-.65,7.24,7.24,0,0,1-1.88-.8.67.67,0,0,0-.81.11l-1.13,1.15-1.89-1.92,1.13-1.15a.68.68,0,0,0,.1-.83,8.06,8.06,0,0,1-.78-1.92.66.66,0,0,0-.64-.5h-1.6V23.37h1.6a.66.66,0,0,0,.64-.51,8,8,0,0,1,.44-1.24c.1-.23.22-.46.34-.68a.66.66,0,0,0-.1-.82L15.42,19l1.89-1.92,1.13,1.15a.65.65,0,0,0,.81.1,7.22,7.22,0,0,1,1.88-.79.68.68,0,0,0,.5-.66V15.23H24.3v1.62a.69.69,0,0,0,.5.66,7.28,7.28,0,0,1,1.89.79.65.65,0,0,0,.81-.1l1.12-1.15L30.51,19l-1.13,1.15a.68.68,0,0,0-.1.82,7.45,7.45,0,0,1,.78,1.92.66.66,0,0,0,.64.51h1.6Z"></path>
        <path class="cls-2" d="M33.63,34.23h4v1.36h-4Z"></path>
      </g>
    </g>
  </g>
</svg>
