<?xml version="1.0" encoding="UTF-8"?>
<svg xmlns="http://www.w3.org/2000/svg" viewBox="0 0 34 40">
  <defs>
    <style>.cls-1{fill:#ffc107;opacity:0.7;}.cls-2{fill:#212121;}</style>
  </defs>
  <title>Asset 22</title>
  <g id="Layer_2" data-name="Layer 2">
    <g id="Layer_1-2" data-name="Layer 1">
      <circle class="cls-1" cx="17" cy="23" r="17"></circle>
      <path class="cls-2" d="M17,0A13.56,13.56,0,0,0,3.5,13.58c0,3,1.76,7.58,5.54,14.39,2.58,4.65,5.15,8.58,5.26,8.74l1.86,2.83a1,1,0,0,0,1.68,0l1.86-2.83c.11-.16,2.66-4.05,5.26-8.74,3.78-6.81,5.54-11.39,5.54-14.39A13.56,13.56,0,0,0,17,0Zm6.19,27c-2.56,4.62-5.07,8.45-5.18,8.61l-1,1.55-1-1.55c-.11-.16-2.64-4-5.18-8.61C7.3,20.66,5.52,16.15,5.52,13.58a11.48,11.48,0,1,1,23,0C28.48,16.15,26.7,20.66,23.19,27Z"></path>
      <path class="cls-2" d="M17,6a7.53,7.53,0,1,0,7.48,7.53A7.51,7.51,0,0,0,17,6Zm0,13a5.49,5.49,0,1,1,5.46-5.49A5.48,5.48,0,0,1,17,19Z"></path>
    </g>
  </g>
</svg>
