<?xml version="1.0" encoding="UTF-8"?>
<svg xmlns="http://www.w3.org/2000/svg" viewBox="0 0 40.6 40.6">
  <defs>
    <style>.cls-1{fill:#2196f3;opacity:0.7;}.cls-2{fill:#212121;stroke:#212121;stroke-miterlimit:10;stroke-width:0.6px;}</style>
  </defs>
  <title>Asset 24</title>
  <g id="Layer_2" data-name="Layer 2">
    <g id="Layer_1-2" data-name="Layer 1">
      <circle class="cls-1" cx="23.3" cy="17.3" r="17"></circle>
      <path class="cls-2" d="M21,31l-5.69,5.69A8,8,0,0,1,3.92,25.35L14.64,14.64a8,8,0,0,1,13.28,3.14l-5.07,5.07a3.63,3.63,0,0,1-5.11,0,3.53,3.53,0,0,1-.79-1.2.66.66,0,0,0-.84-.35.64.64,0,0,0-.35.83,4.89,4.89,0,0,0,8,1.62L34.46,13a4.89,4.89,0,0,0-6.91-6.91L24.17,9.51a.64.64,0,1,0,.9.9L28.45,7a3.61,3.61,0,1,1,5.11,5.11l-4.65,4.65a9.06,9.06,0,0,0-2-3,9.32,9.32,0,0,0-13.15,0L3,24.44A9.29,9.29,0,0,0,16.17,37.58l5.69-5.68A.64.64,0,0,0,21,31Z"></path>
      <path class="cls-2" d="M37.58,3A9.3,9.3,0,0,0,24.43,3l-5.7,5.69a.65.65,0,0,0,0,.9.65.65,0,0,0,.91,0l5.7-5.69A8,8,0,0,1,36.68,15.25L26,26a8,8,0,0,1-13.28-3.14l5.07-5.07a3.63,3.63,0,0,1,5.11,0,3.53,3.53,0,0,1,.79,1.2.66.66,0,0,0,.84.35.64.64,0,0,0,.35-.83,4.89,4.89,0,0,0-8-1.62l-5.22,5.22a.63.63,0,0,0-.23.23L6.14,27.56a4.89,4.89,0,0,0,6.91,6.91l3.38-3.38a.64.64,0,1,0-.9-.9l-3.38,3.38A3.61,3.61,0,1,1,7,28.46l4.65-4.65a9.06,9.06,0,0,0,2,3.05,9.31,9.31,0,0,0,13.15,0l10.71-10.7A9.29,9.29,0,0,0,37.58,3Z"></path>
    </g>
  </g>
</svg>
