<?xml version="1.0" encoding="UTF-8"?>
<svg xmlns="http://www.w3.org/2000/svg" viewBox="0 0 40.4 40.4">
  <defs>
    <style>.cls-1{fill:#d549de;opacity:0.7;}.cls-2{fill:#212121;stroke:#212121;stroke-miterlimit:10;stroke-width:0.4px;}</style>
  </defs>
  <title>Asset 32</title>
  <g id="Layer_2" data-name="Layer 2">
    <g id="Layer_1-2" data-name="Layer 1">
      <circle class="cls-1" cx="17.2" cy="23.2" r="17"></circle>
      <path class="cls-2" d="M39.42,16.51h-5a.78.78,0,0,0-.78.78v3.95a.78.78,0,0,0,1.56,0V18.07h3.44V38.64H35.2V27.09a.78.78,0,0,0-1.56,0V38.64H32.07V22.47a.78.78,0,0,0-.78-.79h-5a.78.78,0,0,0-.78.79V38.64H24V27.93a.78.78,0,0,0-.78-.78h-5a.78.78,0,0,0-.78.78V38.64H15.82V32.42a.77.77,0,0,0-.78-.78H10a.78.78,0,0,0-.78.78v6.22H2.54a.78.78,0,0,1-.78-.78V2.54a.78.78,0,0,1,.78-.78H22.7V6.92A2.34,2.34,0,0,0,25,9.26H30.2v9.61a.78.78,0,0,0,1.56,0V8.48a.76.76,0,0,0-.23-.55L24,.43A.75.75,0,0,0,23.48.2H2.54A2.34,2.34,0,0,0,.2,2.54V37.86A2.34,2.34,0,0,0,2.54,40.2H39.42a.78.78,0,0,0,.78-.78V17.29A.78.78,0,0,0,39.42,16.51ZM24.26,2.87,29.09,7.7H25a.78.78,0,0,1-.78-.78Zm-10,35.77H10.82V33.2h3.44Zm8.13,0H19V28.72h3.44Zm8.12,0H27.07V23.25h3.44Z"></path>
    </g>
  </g>
</svg>
