<?xml version="1.0" encoding="UTF-8"?>
<svg xmlns="http://www.w3.org/2000/svg" viewBox="0 0 40.4 40.4">
  <defs>
    <style>.cls-1{fill:#1ec625;opacity:0.7;}.cls-2{fill:#212121;stroke:#212121;stroke-miterlimit:10;stroke-width:0.4px;}</style>
  </defs>
  <title>Asset 36</title>
  <g id="Layer_2" data-name="Layer 2">
    <g id="Layer_1-2" data-name="Layer 1">
      <circle class="cls-1" cx="23.2" cy="17.2" r="17"></circle>
      <path class="cls-2" d="M39.84,24.29a2.75,2.75,0,0,0-3.67-1l-5.73,3.21a2.71,2.71,0,0,0-.53-.77A2.75,2.75,0,0,0,28,25H17.93a.66.66,0,0,0-.33.09l-4.44,2.4-.75-2a.67.67,0,0,0-.86-.39L5.24,27.33a.64.64,0,0,0-.38.34.62.62,0,0,0,0,.5l.23.61L.64,30.35a.63.63,0,0,0-.4.83l3.22,8.59a.68.68,0,0,0,.86.39L8.74,38.6l.23.61a.67.67,0,0,0,.86.39l6.32-2.23a.65.65,0,0,0,.4-.84l-.16-.43H24a.66.66,0,0,0,.33-.09l14.55-8.16a2.56,2.56,0,0,0,1.34-2.26A2.47,2.47,0,0,0,39.84,24.29ZM4.49,38.71,1.74,31.35,5.53,30l2.76,7.36ZM10,38.15,6.33,28.33l5.05-1.78,3.67,9.81ZM38.18,26.72,23.8,34.8H15.9l-2.28-6.07,4.48-2.42H28a1.41,1.41,0,0,1,.95.38,1.28,1.28,0,0,1,.31.51,1,1,0,0,1,.08.42A1.32,1.32,0,0,1,28,28.92H20.62v1.31H28a2.67,2.67,0,0,0,2.65-2.3l6.18-3.47a1.39,1.39,0,0,1,1.34,0,1.3,1.3,0,0,1,.67,1.13A1.26,1.26,0,0,1,38.18,26.72Z"></path>
      <path class="cls-2" d="M11.21,7.38v17h1.35v-17a.66.66,0,0,1,.67-.65H28.68V11.3a.65.65,0,0,0,.48.62.68.68,0,0,0,.75-.26l.78-1.15.79,1.15a.68.68,0,0,0,.75.26.66.66,0,0,0,.48-.62V6.73h.67a.66.66,0,0,1,.67.65V23.05H35.4V7.38a2,2,0,0,0-2-2H13.23A2,2,0,0,0,11.21,7.38ZM31.37,9.14,31.25,9a.71.71,0,0,0-.56-.27.69.69,0,0,0-.55.27L30,9.14V6.73h1.35Z"></path>
      <path class="cls-2" d="M8.52,4.77V24.35H9.87V4.77a.66.66,0,0,1,.67-.65H30.69a.66.66,0,0,1,.68.65h1.34a2,2,0,0,0-2-2H10.54A2,2,0,0,0,8.52,4.77Z"></path>
      <path class="cls-2" d="M7.18,2.16a.66.66,0,0,1,.67-.65H28a.66.66,0,0,1,.67.65H30a2,2,0,0,0-2-2H7.85a2,2,0,0,0-2,2V24.35H7.18Z"></path>
      <path class="cls-2" d="M15.24,8.69h4V10h-4Z"></path>
      <path class="cls-2" d="M15.24,11.3h4v1.3h-4Z"></path>
      <path class="cls-2" d="M31,15.52a6,6,0,0,0-6-5.88.68.68,0,0,0-.68.66v5.22a.67.67,0,0,0,.68.65h5.37A.66.66,0,0,0,31,15.52Zm-5.37-.65V11a4.64,4.64,0,0,1,4,3.87Z"></path>
      <path class="cls-2" d="M22,24.35A6,6,0,0,0,28,18.48a.67.67,0,0,0-.67-.66H22.63V13.25A.66.66,0,0,0,22,12.6a5.88,5.88,0,1,0,0,11.75ZM21.29,14v4.53a.66.66,0,0,0,.67.65h4.66a4.72,4.72,0,0,1-9.36-.44A4.62,4.62,0,0,1,21.29,14Z"></path>
    </g>
  </g>
</svg>
