<?xml version="1.0" encoding="UTF-8"?>
<svg xmlns="http://www.w3.org/2000/svg" viewBox="0 0 40.2 40.2">
  <defs>
    <style>.cls-1{fill:#ffc107;opacity:0.7;}.cls-2{stroke:#212121;stroke-miterlimit:10;stroke-width:0.2px;}</style>
  </defs>
  <title>Asset 21</title>
  <g id="Layer_2" data-name="Layer 2">
    <g id="Layer_1-2" data-name="Layer 1">
      <circle class="cls-1" cx="23.1" cy="17.1" r="17"></circle>
      <path class="cls-2" d="M39.87.33A.76.76,0,0,0,39.32.1H20.1a.78.78,0,0,0-.78.78V3.12l-7.41,2a.79.79,0,0,0-.55,1L15.2,20.38,11.88,23.7a2.33,2.33,0,0,0-1.94-1H2.44A2.34,2.34,0,0,0,.1,25V37.76A2.34,2.34,0,0,0,2.44,40.1h7.5a2.35,2.35,0,0,0,2.28-1.78l.93.81a3.88,3.88,0,0,0,2.58,1H39.32a.78.78,0,0,0,.78-.78V.88A.76.76,0,0,0,39.87.33ZM10.72,37.76a.78.78,0,0,1-.78.78H2.44a.78.78,0,0,1-.78-.78V25a.78.78,0,0,1,.78-.78h3v9a.78.78,0,0,0,1.56,0v-9h3a.78.78,0,0,1,.78.78V37.76ZM13.07,6.41l6.25-1.68v2.9l-.52.14a.74.74,0,0,0-.48.36.84.84,0,0,0-.08.6,2.1,2.1,0,0,1-1.48,2.57.79.79,0,0,0-.48.37.81.81,0,0,0-.08.59l3.05,11.28H17.68l-.81-3.16a.72.72,0,0,0-.13-.28Zm6.25,4.8V17.8l-1.43-5.27A3.65,3.65,0,0,0,19.32,11.21ZM30.54,38.54H15.73A2.39,2.39,0,0,1,14.17,38l-1.88-1.64V25.5l3.41-3.41.62,2.42a.78.78,0,0,0,.75.59H32.43a1.1,1.1,0,1,1,0,2.19H24.56a.78.78,0,0,0,0,1.56H34.88a1.1,1.1,0,0,1,0,2.19H24.56a.78.78,0,0,0,0,1.56h8.65a1.1,1.1,0,0,1,0,2.19H24.56a.78.78,0,0,0,0,1.56h6a1.1,1.1,0,1,1,0,2.19Zm8,0H33a2.72,2.72,0,0,0,.24-1.1A2.63,2.63,0,0,0,33,36.35h.25a2.66,2.66,0,0,0,2.65-2.66,2.6,2.6,0,0,0-.28-1.18,2.66,2.66,0,0,0,2-2.57A2.63,2.63,0,0,0,37,28.36v-9.9a.78.78,0,1,0-1.56,0v8.89a2.76,2.76,0,0,0-.57-.06h0a2.72,2.72,0,0,0,.24-1.1,2.66,2.66,0,0,0-2.66-2.65H31.18a3.74,3.74,0,1,0-2.94,0H24V8.68a3.65,3.65,0,0,0,2.8-2.8h5.88a3.65,3.65,0,0,0,2.8,2.8v2.43a.78.78,0,0,0,1.56,0V8a.78.78,0,0,0-.78-.79,2.1,2.1,0,0,1-2.1-2.1.78.78,0,0,0-.79-.78H26.07a.78.78,0,0,0-.78.78,2.1,2.1,0,0,1-2.1,2.1.78.78,0,0,0-.78.79V23.54H20.88V1.66H38.54ZM29.71,22.28a2.18,2.18,0,1,1,2.18-2.18A2.19,2.19,0,0,1,29.71,22.28Z"></path>
    </g>
  </g>
</svg>
