<?xml version="1.0" encoding="UTF-8"?>
<svg xmlns="http://www.w3.org/2000/svg" viewBox="0 0 40 40">
  <defs>
    <style>.cls-1{fill:#2196f3;opacity:0.7;}</style>
  </defs>
  <title>Asset 25</title>
  <g id="Layer_2" data-name="Layer 2">
    <g id="Layer_1-2" data-name="Layer 1">
      <circle class="cls-1" cx="22" cy="21.83" r="17"></circle>
      <path d="M36.36,0H3.64A3.64,3.64,0,0,0,0,3.64V36.36A3.64,3.64,0,0,0,3.64,40H36.36A3.64,3.64,0,0,0,40,36.36V3.64A3.64,3.64,0,0,0,36.36,0Zm1.82,36.36a1.81,1.81,0,0,1-1.82,1.82H3.64a1.81,1.81,0,0,1-1.82-1.82V9.09H38.18Zm0-29.09H1.82V3.64A1.81,1.81,0,0,1,3.64,1.82H36.36a1.81,1.81,0,0,1,1.82,1.82V7.27Z"></path>
      <circle cx="4.55" cy="4.55" r="0.91"></circle>
      <circle cx="8.18" cy="4.55" r="0.91"></circle>
      <circle cx="11.82" cy="4.55" r="0.91"></circle>
      <path d="M6.36,29.09H24.55a.9.9,0,0,0,.9-.91V13.64a.9.9,0,0,0-.9-.91H6.36a.91.91,0,0,0-.91.91V28.18A.91.91,0,0,0,6.36,29.09Zm.91-14.54H23.64V27.27H7.27Z"></path>
      <path d="M11.82,16.36a2.73,2.73,0,0,0-2.73,2.73v5.46a.91.91,0,0,0,1.82,0v-.91h1.82v.91a.91.91,0,0,0,1.82,0V19.09A2.74,2.74,0,0,0,11.82,16.36Zm.91,5.46H10.91V19.09a.91.91,0,1,1,1.82,0v2.73Z"></path>
      <path d="M19.09,16.36H17.27a.91.91,0,0,0-.91.91v7.28a.9.9,0,0,0,.91.9h1.82a2.73,2.73,0,0,0,2.73-2.72V19.09A2.74,2.74,0,0,0,19.09,16.36ZM20,22.73a.91.91,0,0,1-.91.91h-.91V18.18h.91a.91.91,0,0,1,.91.91v3.64Z"></path>
      <path d="M6.36,34.55H33.64a.91.91,0,1,0,0-1.82H6.36a.91.91,0,1,0,0,1.82Z"></path>
      <path d="M28.18,18.18h5.46a.91.91,0,1,0,0-1.82H28.18a.91.91,0,0,0,0,1.82Z"></path>
      <path d="M28.18,23.64h5.46a.91.91,0,1,0,0-1.82H28.18a.91.91,0,0,0,0,1.82Z"></path>
      <path d="M28.18,29.09h5.46a.91.91,0,1,0,0-1.82H28.18a.91.91,0,0,0,0,1.82Z"></path>
    </g>
  </g>
</svg>
