<?xml version="1.0" encoding="UTF-8"?>
<svg xmlns="http://www.w3.org/2000/svg" viewBox="0 0 40.6 40.59">
  <defs>
    <style>.cls-1{fill:#1ec625;opacity:0.7;}.cls-2{fill:#212121;stroke:#212121;stroke-miterlimit:10;stroke-width:0.6px;}</style>
  </defs>
  <title>Asset 35</title>
  <g id="Layer_2" data-name="Layer 2">
    <g id="Layer_1-2" data-name="Layer 1">
      <circle class="cls-1" cx="17.3" cy="23.29" r="17"></circle>
      <path class="cls-2" d="M17,3A14,14,0,1,0,31,17,14,14,0,0,0,17,3ZM17,4.3A12.65,12.65,0,0,1,27.32,9.68l-1.67,1.66A2.77,2.77,0,0,0,24.31,11a2.67,2.67,0,0,0-2.67,2.67A2.6,2.6,0,0,0,22,15l-4.37,4.36a2.6,2.6,0,0,0-2.69,0l-3-3A2.57,2.57,0,0,0,12.31,15a2.66,2.66,0,0,0-5.24-.66H4.6A12.68,12.68,0,0,1,17,4.3Zm8.66,9.33a1.34,1.34,0,1,1-1.33-1.33A1.33,1.33,0,0,1,25.64,13.63Zm-8,8a1.33,1.33,0,1,1-1.33-1.34A1.33,1.33,0,0,1,17.64,21.63ZM11,15a1.34,1.34,0,1,1-1.34-1.33A1.34,1.34,0,0,1,11,15ZM23.13,28A12.5,12.5,0,0,1,17,29.62,12.65,12.65,0,0,1,4.31,17c0-.45,0-.9.07-1.35H7.07a2.68,2.68,0,0,0,2.57,2A2.57,2.57,0,0,0,11,17.25l3,3a2.77,2.77,0,0,0-.38,1.35,2.67,2.67,0,1,0,5-1.35L23,15.92a2.77,2.77,0,0,0,1.35.38A2.67,2.67,0,0,0,27,13.63a2.6,2.6,0,0,0-.38-1.35l1.46-1.45A12.65,12.65,0,0,1,23.13,28Z"></path>
      <path class="cls-2" d="M33.64,7a2.68,2.68,0,0,0,2.57-2H40.3V3.63H36.21A2.66,2.66,0,0,0,31,4.3a2.57,2.57,0,0,0,.38,1.35L30.18,6.82A16.66,16.66,0,1,0,26,31l2,2,.94.94,5.37,5.36a3.49,3.49,0,0,0,4.94-4.94L33.91,29,33,28l-2-2A16.6,16.6,0,0,0,31,7.92l1.33-1.33A2.77,2.77,0,0,0,33.64,7Zm0-4A1.33,1.33,0,1,1,32.3,4.3,1.33,1.33,0,0,1,33.64,3Zm4.69,32.29a2.16,2.16,0,1,1-3,3.1l0,0L29.91,33,33,29.9ZM32,29,29,32l-1.84-1.84.27-.23.3-.24c.15-.12.29-.25.43-.38l.21-.2c.28-.25.54-.52.8-.79l.2-.21c.13-.14.25-.29.37-.43l.25-.3c.07-.09.15-.18.22-.28Zm-2.59-3.1c-.21.3-.42.58-.65.86l-.21.24q-.3.34-.63.69l-.29.29-.69.63-.24.2c-.27.23-.56.45-.85.66a15.38,15.38,0,1,1,3.56-3.57Z"></path>
    </g>
  </g>
</svg>
