<?xml version="1.0" encoding="UTF-8"?>
<svg xmlns="http://www.w3.org/2000/svg" xmlns:xlink="http://www.w3.org/1999/xlink" width="600" height="403" viewBox="0 0 600 403">
  <defs>
    <clipPath id="clip-path">
      <rect width="338" height="117" fill="none"></rect>
    </clipPath>
  </defs>
  <g id="Group_21790" data-name="Group 21790" transform="translate(-7291 21440)">
    <rect id="Rectangle_8079" data-name="Rectangle 8079" width="600" height="400" transform="translate(7291 -21440)" fill="#fff"></rect>
    <g id="Group_21789" data-name="Group 21789" transform="translate(157)">
      <g id="Group_21788" data-name="Group 21788">
        <g id="Group_21777" data-name="Group 21777" transform="translate(1428)">
          <ellipse id="Ellipse_77" data-name="Ellipse 77" cx="220" cy="25" rx="220" ry="25" transform="translate(5866 -21087)" fill="#f2f2f2"></ellipse>
          <ellipse id="Ellipse_133" data-name="Ellipse 133" cx="200" cy="15" rx="200" ry="15" transform="translate(5887 -21077)" fill="#eaeaea"></ellipse>
        </g>
        <g id="Group_21755" data-name="Group 21755" transform="translate(1429 17)">
          <g id="Rectangle_8080" data-name="Rectangle 8080" transform="translate(5886 -21415)" fill="#fff" stroke="#cfd5db" stroke-width="2">
            <rect width="400" height="336" rx="20" stroke="none"></rect>
            <rect x="1" y="1" width="398" height="334" rx="19" fill="none"></rect>
          </g>
          <circle id="Ellipse_130" data-name="Ellipse 130" cx="5" cy="5" r="5" transform="translate(5906 -21399)" fill="#cfd5db"></circle>
          <rect id="Rectangle_8081" data-name="Rectangle 8081" width="400" height="2" transform="translate(5886 -21375)" fill="#cfd5db"></rect>
          <circle id="Ellipse_131" data-name="Ellipse 131" cx="5" cy="5" r="5" transform="translate(5921 -21399)" fill="#cfd5db"></circle>
          <circle id="Ellipse_132" data-name="Ellipse 132" cx="5" cy="5" r="5" transform="translate(5936 -21399)" fill="#cfd5db"></circle>
        </g>
      </g>
      <g id="Group_21784" data-name="Group 21784">
        <g id="Group_21783" data-name="Group 21783" transform="translate(1 -11)">
          <g id="Rectangle_8099" data-name="Rectangle 8099" transform="translate(7345 -21317)" fill="#fff" stroke="#cfd5db" stroke-width="2">
            <rect width="80" height="40" rx="5" stroke="none"></rect>
            <rect x="1" y="1" width="78" height="38" rx="4" fill="none"></rect>
          </g>
          <rect id="Rectangle_8100" data-name="Rectangle 8100" width="10" height="4" rx="2" transform="translate(7355 -21307)" fill="#3575d3"></rect>
          <rect id="Rectangle_8101" data-name="Rectangle 8101" width="5" height="5" rx="2.5" transform="translate(7410 -21308)" fill="#cfd5db"></rect>
          <rect id="Rectangle_8102" data-name="Rectangle 8102" width="30" height="6" rx="3" transform="translate(7355 -21294)" fill="#cfd5db"></rect>
        </g>
        <g id="Group_21783-2" data-name="Group 21783" transform="translate(87 -11)">
          <g id="Rectangle_8099-2" data-name="Rectangle 8099" transform="translate(7345 -21317)" fill="#fff" stroke="#cfd5db" stroke-width="2">
            <rect width="80" height="40" rx="5" stroke="none"></rect>
            <rect x="1" y="1" width="78" height="38" rx="4" fill="none"></rect>
          </g>
          <rect id="Rectangle_8100-2" data-name="Rectangle 8100" width="10" height="4" rx="2" transform="translate(7355 -21307)" fill="#fb8c00"></rect>
          <rect id="Rectangle_8101-2" data-name="Rectangle 8101" width="5" height="5" rx="2.5" transform="translate(7410 -21308)" fill="#cfd5db"></rect>
          <rect id="Rectangle_8102-2" data-name="Rectangle 8102" width="30" height="6" rx="3" transform="translate(7355 -21294)" fill="#cfd5db"></rect>
        </g>
        <g id="Group_21783-3" data-name="Group 21783" transform="translate(173 -11)">
          <g id="Rectangle_8099-3" data-name="Rectangle 8099" transform="translate(7345 -21317)" fill="#fff" stroke="#cfd5db" stroke-width="2">
            <rect width="80" height="40" rx="5" stroke="none"></rect>
            <rect x="1" y="1" width="78" height="38" rx="4" fill="none"></rect>
          </g>
          <rect id="Rectangle_8100-3" data-name="Rectangle 8100" width="10" height="4" rx="2" transform="translate(7355 -21307)" fill="#9d3bff"></rect>
          <rect id="Rectangle_8101-3" data-name="Rectangle 8101" width="5" height="5" rx="2.5" transform="translate(7410 -21308)" fill="#cfd5db"></rect>
          <rect id="Rectangle_8102-3" data-name="Rectangle 8102" width="30" height="6" rx="3" transform="translate(7355 -21294)" fill="#cfd5db"></rect>
        </g>
        <g id="Group_21783-4" data-name="Group 21783" transform="translate(259 -11)">
          <g id="Rectangle_8099-4" data-name="Rectangle 8099" transform="translate(7345 -21317)" fill="#fff" stroke="#cfd5db" stroke-width="2">
            <rect width="80" height="40" rx="5" stroke="none"></rect>
            <rect x="1" y="1" width="78" height="38" rx="4" fill="none"></rect>
          </g>
          <rect id="Rectangle_8100-4" data-name="Rectangle 8100" width="10" height="4" rx="2" transform="translate(7355 -21307)" fill="#00c5d2"></rect>
          <rect id="Rectangle_8101-4" data-name="Rectangle 8101" width="5" height="5" rx="2.5" transform="translate(7410 -21308)" fill="#cfd5db"></rect>
          <rect id="Rectangle_8102-4" data-name="Rectangle 8102" width="30" height="6" rx="3" transform="translate(7355 -21294)" fill="#cfd5db"></rect>
        </g>
      </g>
      <g id="Group_21787" data-name="Group 21787" transform="translate(0 -16)">
        <rect id="Rectangle_8105" data-name="Rectangle 8105" width="338" height="2" rx="1" transform="translate(7346 -21089)" fill="#cfd5db"></rect>
        <g id="Repeat_Grid_90" data-name="Repeat Grid 90" transform="translate(7346 -21242)" clip-path="url(#clip-path)">
          <g transform="translate(-7346 21146)">
            <rect id="Rectangle_8106" data-name="Rectangle 8106" width="338" height="2" rx="1" transform="translate(7346 -21146)" fill="#f4f4f4"></rect>
          </g>
          <g transform="translate(-7346 21184)">
            <rect id="Rectangle_8106-2" data-name="Rectangle 8106" width="338" height="2" rx="1" transform="translate(7346 -21146)" fill="#f4f4f4"></rect>
          </g>
          <g transform="translate(-7346 21222)">
            <rect id="Rectangle_8106-3" data-name="Rectangle 8106" width="338" height="2" rx="1" transform="translate(7346 -21146)" fill="#f4f4f4"></rect>
          </g>
          <g transform="translate(-7346 21260)">
            <rect id="Rectangle_8106-4" data-name="Rectangle 8106" width="338" height="2" rx="1" transform="translate(7346 -21146)" fill="#f4f4f4"></rect>
          </g>
        </g>
        <g id="Group_21786" data-name="Group 21786" transform="translate(0 30)">
          <path id="Path_2436" data-name="Path 2436" d="M15567,1010.643l55.7-22.886,56.338-6.814,56.846-18.128,55.939,18.128,55.637-30.127L15905,923.1" transform="translate(-8221 -22171)" fill="none" stroke="#3575d3" stroke-width="4"></path>
          <g id="Group_21785" data-name="Group 21785">
            <g id="Ellipse_134" data-name="Ellipse 134" transform="translate(7342 -21169)" fill="#fff" stroke="#3575d3" stroke-width="3">
              <circle cx="8" cy="8" r="8" stroke="none"></circle>
              <circle cx="8" cy="8" r="6.5" fill="none"></circle>
            </g>
            <g id="Ellipse_135" data-name="Ellipse 135" transform="translate(7393 -21191)" fill="#fff" stroke="#3575d3" stroke-width="3">
              <circle cx="8" cy="8" r="8" stroke="none"></circle>
              <circle cx="8" cy="8" r="6.5" fill="none"></circle>
            </g>
            <g id="Ellipse_136" data-name="Ellipse 136" transform="translate(7452 -21199)" fill="#fff" stroke="#3575d3" stroke-width="3">
              <circle cx="8" cy="8" r="8" stroke="none"></circle>
              <circle cx="8" cy="8" r="6.5" fill="none"></circle>
            </g>
            <g id="Ellipse_137" data-name="Ellipse 137" transform="translate(7507 -21215)" fill="#fff" stroke="#3575d3" stroke-width="3">
              <circle cx="8" cy="8" r="8" stroke="none"></circle>
              <circle cx="8" cy="8" r="6.5" fill="none"></circle>
            </g>
            <g id="Ellipse_138" data-name="Ellipse 138" transform="translate(7561 -21200)" fill="#fff" stroke="#3575d3" stroke-width="3">
              <circle cx="8" cy="8" r="8" stroke="none"></circle>
              <circle cx="8" cy="8" r="6.5" fill="none"></circle>
            </g>
            <g id="Ellipse_139" data-name="Ellipse 139" transform="translate(7674 -21255)" fill="#fff" stroke="#3575d3" stroke-width="3">
              <circle cx="8" cy="8" r="8" stroke="none"></circle>
              <circle cx="8" cy="8" r="6.5" fill="none"></circle>
            </g>
            <g id="Ellipse_140" data-name="Ellipse 140" transform="translate(7614 -21226)" fill="#fff" stroke="#3575d3" stroke-width="3">
              <circle cx="8" cy="8" r="8" stroke="none"></circle>
              <circle cx="8" cy="8" r="6.5" fill="none"></circle>
            </g>
          </g>
        </g>
      </g>
    </g>
    <g id="standing-8" transform="translate(7320.386 -21289.715)">
      <g id="A-Human_Standing" data-name="A-Human/Standing" transform="translate(0)">
        <g id="Head_Front_Long" data-name="Head/Front/Long" transform="translate(71.771)">
          <path id="Hair-Back" d="M77.924,38C80,45.642,82.7,62.816,79.943,65.51H62.5l-.005-.093A12.934,12.934,0,0,1,51,52.564V39.932A12.932,12.932,0,0,1,63.932,27h1.2A12.935,12.935,0,0,1,77.924,38Z" transform="translate(-42.579 -27)" fill="#191847" fill-rule="evenodd"></path>
          <g id="Head" transform="translate(10.226 2.406)">
            <path id="Path_2121" data-name="Path 2121" d="M4.97,20.746C2.2,17.493.322,13.505.636,9.038,1.539-3.835,19.458-1,22.943,5.494s3.071,22.977-1.433,24.138c-1.8.463-5.624-.671-9.519-3.019l2.445,17.3H0Z" transform="translate(0 0)" fill="#d4a181" fill-rule="evenodd"></path>
          </g>
          <path id="Hair-Front" d="M56.1,48.376c.665,7.145.4,15.3-1.584,17.24H37.071C36.1,48.73,45.492,55.269,45.492,39.37c.586-.572,1.139-1.139,1.687-1.627l-.019-.468Q51.69,28,58.655,28c6.965,0,9.164,3.241,11.036,5.993-1.4,4.8-6.832,5.515-11.659,8.509a3.308,3.308,0,1,0-2.085,5.877Q56.023,48.379,56.1,48.376Z" transform="translate(-37 -27.399)" fill="#191847" fill-rule="evenodd"></path>
        </g>
        <g id="Bottom_Standing_Skirt" data-name="Bottom/Standing/Skirt" transform="translate(0 93.33)">
          <path id="Skirt-Shadow" d="M97.408,91.806q21.644,6.054,37.348,6.054a50.242,50.242,0,0,0,29.173-9.323q-21.181-6.214-34.887-6.214T97.408,91.806Z" transform="translate(-38.625 -29.895)" fill="#1f28cf" fill-rule="evenodd"></path>
          <path id="Leg" d="M156.251,70.872a3.4,3.4,0,0,1-.35-.683C153.972,65.088,123.078,10.06,120,0h34.783c2.34,7.649,12.873,55.651,14.355,65.228,4.677,15.107,14.306,64.032,15.535,67.422,1.293,3.566-5.983,7.28-7.922,2.9a372.952,372.952,0,0,1-13.709-38.058C159.973,86.441,157.475,76.5,156.251,70.872Z" transform="translate(-47.628 2.91)" fill="#ba8b72" fill-rule="evenodd"></path>
          <path id="Leg-2" data-name="Leg" d="M84.009,77.59C69.885,81.16,18.221,87.614,14.676,88.626c-3.647,1.041-6.845-6.476-2.337-8.1A372.95,372.95,0,0,1,51.26,69.5c9.639-1.965,18.434-3.569,24.34-4.508C75.1,48.405,72.813,8.6,74.312,0h30.776C103.65,8.245,91.5,68.4,89.241,74.423,88.525,76.573,86.386,77.523,84.009,77.59Z" transform="translate(-3.843 2.91)" fill="#d4a181" fill-rule="evenodd"></path>
          <g id="Accessories_Shoe_Flat-Sneaker" data-name="Accessories/Shoe/Flat-Sneaker" transform="translate(12.243 79.802) rotate(80)">
            <path id="shoe" d="M1.009,3.651A12.915,12.915,0,0,0,0,7.683a30.182,30.182,0,0,0,.542,4.748H34.468q1.322-4.372-1.527-4.72t-4.734-.63L12.439.052a.6.6,0,0,0-.794.3l-.007.016L10.625,2.831A10.818,10.818,0,0,1,6.338,4.062a9.708,9.708,0,0,1-3.7-1.082h0a1.2,1.2,0,0,0-1.595.592Q1.024,3.611,1.009,3.651Z" transform="translate(0)" fill="#c5cfd6" fill-rule="evenodd"></path>
          </g>
          <g id="Accessories_Shoe_Flat-Sneaker-2" data-name="Accessories/Shoe/Flat-Sneaker" transform="translate(125.906 134.238)">
            <path id="shoe-2" data-name="shoe" d="M2.009,22.983A12.915,12.915,0,0,0,1,27.015a30.182,30.182,0,0,0,.542,4.748H35.468q1.322-4.372-1.527-4.72t-4.734-.63l-15.768-7.03a.6.6,0,0,0-.794.3l-.007.016-1.014,2.459a10.818,10.818,0,0,1-4.287,1.231,9.708,9.708,0,0,1-3.7-1.082h0a1.2,1.2,0,0,0-1.595.592Q2.024,22.943,2.009,22.983Z" transform="translate(-1 -19.332)" fill="#c5cfd6" fill-rule="evenodd"></path>
          </g>
          <path id="Skirt" d="M107.691-1.928q20.343-5.82,38.5,0c4.211,19.211,14.441,26.835,16.241,56.288-20.451,10.162-45.714-7.247-66.767,2.662C89.646,43.161,98.067,9.78,107.691-1.928Z" transform="translate(-37.124 4.838)" fill="#7f30fe" fill-rule="evenodd"></path>
        </g>
        <g id="Body_Long-Sleeve" data-name="Body/Long-Sleeve" transform="translate(24.35 33.083)">
          <path id="Skin" d="M122.726,59.608l23.749-3.239A51.772,51.772,0,0,1,159.587,51c1.123-.033,2.909.375.248,2.594s-5.361,4.672-4.887,5.856,2.949.743,3.359,2.564q.41,1.821-12.049.592l-19.27,7.64Zm-74.6,5.5,13.171.049Q39.629,113.907,38.7,116.206c-1.392,3.449,1.553,8.7,2.813,11.526-4.1,1.836-3.665-4.963-8.84-2.555-4.723,2.2-8.316,6.179-13.774,2.812-.671-.414-1.406-1.973.37-3.191,4.426-3.035,10.8-8.346,11.665-10.094Q32.7,111.128,48.122,65.105Z" transform="translate(-18.163 -20.323)" fill="#d4a181" fill-rule="evenodd"></path>
          <path id="Clothes-Back" d="M0,.214,10.333,0c4.533,22.669,19.579,35.922,50.007,28.328l6.678,29.119C38.505,63.7,12.2,54.364,4.284,23.556,2.234,15.581.438,7.251,0,.214Z" transform="translate(66.055 2.794) rotate(5)" fill="#afb9c5" fill-rule="evenodd"></path>
          <path id="Clothes" d="M88.771.01,104.4,3.588c0,26.875,8.561,44.021,12.952,63.78h-42.2C74.554,74.2,74.189,81.214,74,88.421H42.4Q53.142,31.276,87.739,0h1.023Z" transform="translate(-27.822)" fill="#c5cfd6" fill-rule="evenodd"></path>
          <path id="Shade" d="M103.5,48.259q-1.631,25.12,1.919,38.34H96.844A206.642,206.642,0,0,1,103.5,48.259Z" transform="translate(-49.517 -19.231)" fill="rgba(0,0,0,0.1)" fill-rule="evenodd"></path>
        </g>
      </g>
    </g>
  </g>
</svg>
