<?xml version="1.0" encoding="UTF-8"?>
<svg xmlns="http://www.w3.org/2000/svg" width="600" height="400" viewBox="0 0 600 400">
  <g id="Group_21781" data-name="Group 21781" transform="translate(-6572 21435)">
    <rect id="Rectangle_8094" data-name="Rectangle 8094" width="600" height="400" transform="translate(6572 -21435)" fill="#fff"></rect>
    <g id="standing-19" transform="translate(7018.855 -21265.471) rotate(129)">
      <g id="humaaan-3" transform="translate(0 0)">
        <g id="Head_Front_Short-Beard" data-name="Head/Front/Short-Beard" transform="matrix(0.966, 0.259, -0.259, 0.966, 64.941, 134.928)">
          <g id="Head" transform="translate(0.087 0)">
            <path id="Path_2434" data-name="Path 2434" d="M6.477,29.923C2.865,34.126.42,39.277.828,45.048,2.006,61.677,25.36,58.019,29.9,49.626s4-29.682-1.868-31.182c-2.341-.6-7.33.867-12.406,3.9L18.815,0H0Z" transform="translate(0 0)" fill="#b28b67" fill-rule="evenodd"></path>
          </g>
          <path id="Hair" d="M16.657,25.512Q17.737,10.6,22.372,10.6c4.635,0,8.568,2.917,10.6,2.917,1.483,0,1.152-1.839.169-3.2-.811-1.125-4.76-2.209-4.76-3.953s3.12-.395,3.12-1.429C31.5,3.217,32.052,0,29.056,0,26.024,0,17.33,1.1,15.841,5.555Q14.4,9.873,13.976,23.45a4.8,4.8,0,0,1-.561.033,4.683,4.683,0,0,1-4.7-4.662,4.628,4.628,0,0,1,1.417-3.335c-1.088-1.523-2.308-3.113-3.706-4.755C1.171,13.853-2.726,22.994,2.408,31.775c1.419,4.3,4.631,6.6,8.425,7.666a13.76,13.76,0,0,0,8.957.654c5.279-.449,9.993-2.044,11.329-2.992,0-4.954-.968-6.424-9.24-6.294C19.846,29.745,18.284,27.913,16.657,25.512Z" transform="translate(0 17.7)" fill="#191847" fill-rule="evenodd"></path>
        </g>
        <g id="Body_Hoodie" data-name="Body/Hoodie" transform="translate(25.016 0) rotate(10)">
          <path id="Skin" d="M122.784,69.387l25.007-18.273a67.505,67.505,0,0,0,17-6.8c1.075-.975,2.374-2.949-2.084-2.607s-9.163.5-9.778-1.013,2.083-3.323.839-5.364q-1.243-2.042-11.749,10.238L117.256,55.789Zm-96.015-.631,16.383-.064Q27.978,19.951,26.769,16.968C24.955,12.495,28.793,5.682,30.435,2.02,25.088-.361,25.658,8.456,18.913,5.334,12.757,2.484,8.074-2.68.961,1.687c-.874.537-1.833,2.558.483,4.138,5.768,3.936,14.081,10.824,15.2,13.091Q18.945,23.554,26.769,68.756Z" transform="translate(0 0)" fill="#b28b67" fill-rule="evenodd"></path>
          <path id="Coat-Back" d="M0,87.078l6.652,1.743C33.593,69.475,47.5,29,80.136,9.765L73.541,0C19.685,1.9,2.063,51.219,0,87.078Z" transform="translate(65.736 50.415) rotate(-5)" fill="#e67e00" fill-rule="evenodd"></path>
          <path id="Shirt" d="M0,0H59.983c2.741,0,2.224,3.938,1.828,5.926C57.238,28.861,39.388,53.584,39.388,86.232l-17.3,2.7C7.775,66.029,2.826,37.832,0,0Z" transform="translate(43.775 52.389)" fill="#dde3e9" fill-rule="evenodd"></path>
          <path id="Coat-Front" d="M28.025,99.184a9.883,9.883,0,0,0-5.97,5.029c-6.324,11.355-4.04,17.606,2.718,19.661S37.559,121.7,48.326,121.7a10.889,10.889,0,0,0,1.609-.11l5.416-.308q23.31-78.612,12.858-104.9H21A159.91,159.91,0,0,0,12.969,0H.1Q-1.712,58.429,28.025,99.184Z" transform="translate(16.231 19.625)" fill="#fb8c00" fill-rule="evenodd"></path>
          <path id="Shade" d="M10.281,26.916Q12.508,8.373,17.52,0H0Q4.894,11.356,10.281,26.916Z" transform="translate(37.23 36.007)" fill="rgba(0,0,0,0.1)" fill-rule="evenodd"></path>
        </g>
      </g>
    </g>
    <g id="Group_21780" data-name="Group 21780" transform="translate(280 -8)">
      <g id="Group_21778" data-name="Group 21778" transform="translate(706 2)">
        <ellipse id="Ellipse_77" data-name="Ellipse 77" cx="150" cy="15" rx="150" ry="15" transform="translate(5866 -21087)" fill="#f2f2f2"></ellipse>
        <ellipse id="Ellipse_133" data-name="Ellipse 133" cx="136.364" cy="9" rx="136.364" ry="9" transform="translate(5880.318 -21081)" fill="#eaeaea"></ellipse>
      </g>
      <g id="Group_21779" data-name="Group 21779" transform="translate(-20)">
        <g id="Group_21776" data-name="Group 21776">
          <g id="Subtraction_1" data-name="Subtraction 1" transform="translate(6614 -21398)" fill="#fff">
            <path d="M 230.0004425048828 329.0003051757812 L 19.99985313415527 329.0003051757812 C 17.4344367980957 329.0003051757812 14.94631195068359 328.4980773925781 12.6045618057251 327.5075378417969 C 10.34222793579102 326.5505676269531 8.310186386108398 325.1803588867188 6.564936637878418 323.4350280761719 C 4.819686412811279 321.6896667480469 3.449603319168091 319.6575317382812 2.492728233337402 317.3950805664062 C 1.502269983291626 315.0532836914062 1.000061631202698 312.5650634765625 1.000061631202698 309.9996032714844 L 1.000061631202698 19.99981880187988 C 1.000061631202698 17.43440246582031 1.502269983291626 14.94623565673828 2.492728233337402 12.60448551177979 C 3.449645042419434 10.3421106338501 4.819686412811279 8.310111045837402 6.564936637878418 6.564902782440186 C 8.310186386108398 4.819611072540283 10.34218692779541 3.449527502059937 12.60451984405518 2.492652654647827 C 14.94626998901367 1.502194285392761 17.4344367980957 0.999985933303833 19.99985313415527 0.999985933303833 L 208.9997253417969 0.999985933303833 L 208.9997711181641 39.99961090087891 L 208.9997711181641 40.99961090087891 L 209.9997711181641 40.99961090087891 L 249.0002746582031 40.99961090087891 L 249.0002746582031 309.9996032714844 C 249.0002746582031 312.56494140625 248.4980621337891 315.0531616210938 247.5075988769531 317.3950805664062 C 246.5506439208984 319.6576232910156 245.1805267333984 321.6897888183594 243.4353485107422 323.4350280761719 C 241.6901092529297 325.1803588867188 239.6580657958984 326.5505676269531 237.3957214355469 327.5075378417969 C 235.0539855957031 328.4980773925781 232.5658569335938 329.0003051757812 230.0004425048828 329.0003051757812 Z" stroke="none"></path>
            <path d="M 230.0004425048828 328.0003051757812 C 232.4312744140625 328.0003051757812 234.7883605957031 327.524658203125 237.0061492919922 326.5865173339844 C 239.1492767333984 325.6799926757812 241.0744781494141 324.3817749023438 242.7282257080078 322.7279357910156 C 244.3818969726562 321.0741882324219 245.6800231933594 319.1488952636719 246.5865631103516 317.0055541992188 C 247.5246429443359 314.7875671386719 248.0002746582031 312.4303894042969 248.0002746582031 309.9996032714844 L 248.0002746582031 41.99961090087891 L 209.9997711181641 41.99961090087891 L 207.9997711181641 41.99961090087891 L 207.9997711181641 39.99961090087891 L 207.9997253417969 1.999985933303833 L 19.99985313415527 1.999985933303833 C 17.56897735595703 1.999985933303833 15.21189498901367 2.475610971450806 12.99406147003174 3.413652658462524 C 10.85093688964844 4.32011079788208 8.925769805908203 5.618236064910889 7.272019863128662 7.27198600769043 C 5.618311405181885 8.925694465637207 4.320228099822998 10.85086059570312 3.4137282371521 12.99402713775635 C 2.475686550140381 15.21186065673828 2.000061511993408 17.56894493103027 2.000061511993408 19.99981880187988 L 2.000061511993408 309.9996032714844 C 2.000061511993408 312.4305419921875 2.475686550140381 314.7876586914062 3.413769960403442 317.0055541992188 C 4.320228099822998 319.1488342285156 5.618353366851807 321.0740966796875 7.272061824798584 322.7279357910156 C 8.925811767578125 324.3817749023438 10.85101985931396 325.6799926757812 12.99414539337158 326.5865173339844 C 15.21193695068359 327.524658203125 17.56901931762695 328.0003051757812 19.99985313415527 328.0003051757812 L 230.0004425048828 328.0003051757812 M 230.0004425048828 330.0003051757812 L 19.99985313415527 330.0003051757812 C 17.29985237121582 330.0003051757812 14.68064498901367 329.4714965820312 12.21497821807861 328.4285278320312 C 9.833395004272461 327.4211120605469 7.69456148147583 325.9789428710938 5.857811450958252 324.1421203613281 C 4.021061420440674 322.3052368164062 2.579020023345947 320.1662902832031 1.571728348731995 317.7846069335938 C 0.5288532972335815 315.3189086914062 6.162516365293413e-05 312.6996459960938 6.162516365293413e-05 309.9996032714844 L 6.162516365293413e-05 19.99981880187988 C 6.162516365293413e-05 17.29981994628906 0.5288532972335815 14.68061065673828 1.571728348731995 12.21494388580322 C 2.579020023345947 9.833402633666992 4.021061420440674 7.694527626037598 5.857811450958252 5.85777759552002 C 7.694603443145752 4.020986080169678 9.833436965942383 2.578944206237793 12.21497821807861 1.57165253162384 C 14.68064498901367 0.5287775993347168 17.29985237121582 -1.407877607562114e-05 19.99985313415527 -1.407877607562114e-05 L 209.9997253417969 -1.407877607562114e-05 L 209.9997711181641 39.99961090087891 L 250.0002746582031 39.99961090087891 L 250.0002746582031 309.9996032714844 C 250.0002746582031 312.6995239257812 249.4714813232422 315.3187866210938 248.4286041259766 317.7846069335938 C 247.4212341308594 320.1663513183594 245.9791870117188 322.3053283691406 244.1424713134766 324.1421203613281 C 242.3057250976562 325.9789428710938 240.1669006347656 327.4211120605469 237.7853088378906 328.4285278320312 C 235.3196411132812 329.4714965820312 232.700439453125 330.0003051757812 230.0004425048828 330.0003051757812 Z" stroke="none" fill="#cfd5db"></path>
          </g>
          <g id="Path_2432" data-name="Path 2432" transform="translate(6823.934 -21398)" fill="#fff">
            <path d="M 37.58578109741211 39 L 1 39 L 1 2.414220094680786 L 37.58578109741211 39 Z" stroke="none"></path>
            <path d="M 2 4.828418731689453 L 2 38 L 35.17158126831055 38 L 2 4.828418731689453 M 0 0 L 40 40 L 0 40 L 0 0 Z" stroke="none" fill="#cfd5db"></path>
          </g>
          <g id="Group_21775" data-name="Group 21775">
            <rect id="Rectangle_8097" data-name="Rectangle 8097" width="4" height="40" transform="translate(6820 -21396)" fill="#fff"></rect>
            <rect id="Rectangle_8098" data-name="Rectangle 8098" width="38" height="10" transform="translate(6824 -21358)" fill="#fff"></rect>
          </g>
        </g>
        <circle id="Avatar" cx="16" cy="16" r="16" transform="translate(6643.999 -21348)" fill="#dde3e9"></circle>
        <g id="Text-Stuff" transform="translate(6694.999 -21340.9)">
          <rect id="Label" width="137" height="7.05" rx="3" fill="#dde3e9"></rect>
          <rect id="Label-2" data-name="Label" width="112.096" height="7.05" rx="3" transform="translate(0 11.75)" fill="#dde3e9"></rect>
        </g>
        <g id="Group_21774" data-name="Group 21774" transform="translate(10 -10)">
          <g id="Group_21771" data-name="Group 21771">
            <g id="Group_21770" data-name="Group 21770" transform="translate(6634 -21286)">
              <rect id="Rectangle_41" data-name="Rectangle 41" width="24" height="24" rx="4" fill="#3575d3"></rect>
              <g id="Group_89" data-name="Group 89" transform="translate(3 4.499)">
                <path id="Path_42" data-name="Path 42" d="M144.194,195.427a1.138,1.138,0,0,0,1.759,0L156.6,183.267a1.566,1.566,0,0,0,0-2.009,1.138,1.138,0,0,0-1.759,0l-9.769,11.155-3.984-4.549a1.138,1.138,0,0,0-1.759,0,1.566,1.566,0,0,0,0,2.009Z" transform="translate(-138.966 -180.843)" fill="#fff"></path>
              </g>
            </g>
            <g id="Text-Stuff-2" data-name="Text-Stuff" transform="translate(6677.999 -21282.9)">
              <rect id="Label-3" data-name="Label" width="137" height="7.05" rx="3" fill="#dde3e9"></rect>
              <rect id="Label-4" data-name="Label" width="112.096" height="7.05" rx="3" transform="translate(0 11.75)" fill="#dde3e9"></rect>
            </g>
          </g>
          <g id="Group_21772" data-name="Group 21772" transform="translate(0 55)">
            <g id="Group_21770-2" data-name="Group 21770" transform="translate(6634 -21286)">
              <rect id="Rectangle_41-2" data-name="Rectangle 41" width="24" height="24" rx="4" fill="#3575d3"></rect>
              <g id="Group_89-2" data-name="Group 89" transform="translate(3 4.499)">
                <path id="Path_42-2" data-name="Path 42" d="M144.194,195.427a1.138,1.138,0,0,0,1.759,0L156.6,183.267a1.566,1.566,0,0,0,0-2.009,1.138,1.138,0,0,0-1.759,0l-9.769,11.155-3.984-4.549a1.138,1.138,0,0,0-1.759,0,1.566,1.566,0,0,0,0,2.009Z" transform="translate(-138.966 -180.843)" fill="#fff"></path>
              </g>
            </g>
            <g id="Text-Stuff-3" data-name="Text-Stuff" transform="translate(6677.999 -21282.9)">
              <rect id="Label-5" data-name="Label" width="137" height="7.05" rx="3" fill="#dde3e9"></rect>
              <rect id="Label-6" data-name="Label" width="112.096" height="7.05" rx="3" transform="translate(0 11.75)" fill="#dde3e9"></rect>
            </g>
          </g>
          <g id="Group_21773" data-name="Group 21773" transform="translate(0 110)">
            <g id="Group_21770-3" data-name="Group 21770" transform="translate(6634 -21286)">
              <path id="Path_2437" data-name="Path 2437" d="M4,0H20a4,4,0,0,1,4,4V20a4,4,0,0,1-4,4H4a4,4,0,0,1-4-4V4A4,4,0,0,1,4,0Z" fill="#3575d3"></path>
              <g id="Group_89-3" data-name="Group 89" transform="translate(3 4.499)">
                <path id="Path_42-3" data-name="Path 42" d="M144.194,195.427a1.138,1.138,0,0,0,1.759,0L156.6,183.267a1.566,1.566,0,0,0,0-2.009,1.138,1.138,0,0,0-1.759,0l-9.769,11.155-3.984-4.549a1.138,1.138,0,0,0-1.759,0,1.566,1.566,0,0,0,0,2.009Z" transform="translate(-138.966 -180.843)" fill="#fff"></path>
              </g>
            </g>
            <g id="Text-Stuff-4" data-name="Text-Stuff" transform="translate(6677.999 -21282.9)">
              <rect id="Label-7" data-name="Label" width="137" height="7.05" rx="3" fill="#dde3e9"></rect>
              <rect id="Label-8" data-name="Label" width="112.096" height="7.05" rx="3" transform="translate(0 11.75)" fill="#dde3e9"></rect>
            </g>
          </g>
        </g>
        <path id="Path_2438" data-name="Path 2438" d="M.54-2.88A10.029,10.029,0,0,0,7.2.33V3.18H9.48V.21c3.18-.48,5.88-2.52,5.88-6.15,0-3.66-2.88-4.95-5.55-5.91-2.28-.84-4.41-1.41-4.41-3,0-1.65,1.53-2.37,2.91-2.37a6.735,6.735,0,0,1,4.32,1.68l2.07-2.52a10.909,10.909,0,0,0-5.07-2.13V-23.1H7.38v2.85c-3.15.27-5.52,2.25-5.52,5.52,0,3.45,2.67,4.62,5.19,5.52,2.34.87,4.62,1.5,4.62,3.54,0,2.01-1.68,2.94-3.84,2.94A7.07,7.07,0,0,1,2.94-5.16Zm16.5,0A10.029,10.029,0,0,0,23.7.33V3.18h2.28V.21c3.18-.48,5.88-2.52,5.88-6.15,0-3.66-2.88-4.95-5.55-5.91-2.28-.84-4.41-1.41-4.41-3,0-1.65,1.53-2.37,2.91-2.37a6.735,6.735,0,0,1,4.32,1.68l2.07-2.52a10.909,10.909,0,0,0-5.07-2.13V-23.1H23.88v2.85c-3.15.27-5.52,2.25-5.52,5.52,0,3.45,2.67,4.62,5.19,5.52,2.34.87,4.62,1.5,4.62,3.54,0,2.01-1.68,2.94-3.84,2.94a7.07,7.07,0,0,1-4.89-2.43Zm16.5,0A10.029,10.029,0,0,0,40.2.33V3.18h2.28V.21c3.18-.48,5.88-2.52,5.88-6.15,0-3.66-2.88-4.95-5.55-5.91-2.28-.84-4.41-1.41-4.41-3,0-1.65,1.53-2.37,2.91-2.37a6.735,6.735,0,0,1,4.32,1.68l2.07-2.52a10.909,10.909,0,0,0-5.07-2.13V-23.1H40.38v2.85c-3.15.27-5.52,2.25-5.52,5.52,0,3.45,2.67,4.62,5.19,5.52,2.34.87,4.62,1.5,4.62,3.54,0,2.01-1.68,2.94-3.84,2.94a7.07,7.07,0,0,1-4.89-2.43Z" transform="translate(6774 -21111)" fill="#212121"></path>
      </g>
    </g>
    <g id="sitting-2" transform="translate(6605 -21289)">
      <g id="A-Human_Sitting" data-name="A-Human/Sitting">
        <g id="Head_Front_Rad" data-name="Head/Front/Rad" transform="translate(35.148)">
          <g id="Head-2" data-name="Head" transform="translate(11.065 10.414)">
            <path id="Path_2433" data-name="Path 2433" d="M5.378,22.449c-3-3.52-5.029-7.835-4.69-12.669C1.665-4.149,21.055-1.085,24.827,5.945s3.324,24.863-1.551,26.12c-1.944.5-6.085-.726-10.3-3.267l2.646,18.717H0Z" transform="translate(0 0)" fill="#b28b67" fill-rule="evenodd"></path>
          </g>
          <path id="hair-2" data-name="hair" d="M38.016,21.543a4.882,4.882,0,0,1,1.018,1.891,19.128,19.128,0,0,1,.652,2.148,4.73,4.73,0,0,1-.713,4.284,4.913,4.913,0,0,1-3.254,1.409,5.98,5.98,0,0,1-2.307-.292c-.735-.242-1.369-.723-2.081-1.022a9.311,9.311,0,0,1-1.1,4.576,4.562,4.562,0,0,1-3.4,2.216A6.735,6.735,0,0,1,22.7,35.92c-.322-.174-.64-.356-.945-.563a2.65,2.65,0,0,0-.821-.451c-.334-.078-.5.115-.717.358a5.447,5.447,0,0,1-.845.761,4.977,4.977,0,0,1-4.657.8,4.328,4.328,0,0,1-1.9-1.373c-.433-.568-.742-1.47-1.34-1.866-.254-.168-.433.055-.664.219-.347.247-.678.52-1.029.761a4.713,4.713,0,0,1-1.6.723c-.837.194-1.994.148-2.234-.948a4.526,4.526,0,0,1,.008-1.267c.04-.57.081-1.14.131-1.709a12.337,12.337,0,0,1,.167-1.274,1.864,1.864,0,0,0,.083-.874c-.121-.283-.681-.122-.92-.132a3.634,3.634,0,0,1-1.382-.3,1.488,1.488,0,0,1-.837-.774,1.39,1.39,0,0,1-.023-.728,2.171,2.171,0,0,0-.044-.747C2.5,26.846.3,27.539.023,26.4A1.777,1.777,0,0,1,.3,25.278,9.749,9.749,0,0,1,1.324,23.72a13.937,13.937,0,0,1,2.727-2.646,1.787,1.787,0,0,1-.466-2.994,2.214,2.214,0,0,1,1.626-.472,3.6,3.6,0,0,0,.672.053,1.608,1.608,0,0,1,.3-.1,9.066,9.066,0,0,1,2.494.317,8.225,8.225,0,0,1,3.8,1.989,1.173,1.173,0,0,0,.88.4c.327,0,.648-.093.975-.1a7.024,7.024,0,0,1,2.448.682,9.236,9.236,0,0,1,.8-3.256c.362-.8,1.118-.912,1.86-.981,2.375-.223,4.758.026,7.136.023-2.3-.52-4.68-.735-6.962-1.347-1.031-.277-.244-.972.2-1.454a8.377,8.377,0,0,0,1.64-2.812,4.961,4.961,0,0,0,4.879,1.984A3.482,3.482,0,0,0,28.417,7.98a6.44,6.44,0,0,0-3.116-2C26.148,5.1,26.353,3.8,26.864,2.7a2.347,2.347,0,0,1,1.168-1.341,1.366,1.366,0,0,0,.617-.245c.2-.21.252-.445.512-.626a2.886,2.886,0,0,1,3.576.275,2.334,2.334,0,0,1-.079,3.06c1.105.461,3.118,1.053,2.679,2.775,2.395.159,8.208,4.043,4.995,6.88,1.764,1,3.384,3.433,2.251,5.58a5.459,5.459,0,0,1-4.566,2.481" transform="translate(42.959 37.101) rotate(180)" fill="#191847" fill-rule="evenodd"></path>
        </g>
        <g id="Bottom_Sitting_Skinny-Jeans-1" data-name="Bottom/Sitting/Skinny-Jeans-1" transform="translate(0 111.953)">
          <g id="Objects_Seat_Cube" data-name="Objects/Seat/Cube" transform="translate(8 22.337)">
            <g id="Seat">
              <path id="Seat-Stuff" d="M17.979,0H68.263l6.589,80.71H0Z" fill="#c5cfd6" fill-rule="evenodd"></path>
              <path id="Seat-Stuff-2" data-name="Seat-Stuff" d="M17.979,0H33.444L42.7,80.71H0Z" fill="rgba(0,0,0,0.1)" fill-rule="evenodd"></path>
            </g>
          </g>
          <path id="Skin-2" data-name="Skin" d="M44.18,3.793C49.541.574,58.536,4.71,58.53,9.314c-.018,13.776-12.59,78.7-13.247,82.8s-7.688,5.188-8.1.013c-.652-8.234-1.862-36.739-.651-49.933.5-5.446,1.038-10.633,1.568-15.26Q28.208,44.81,7.5,78.11L0,74.685Q8.83,45.595,14.48,33.611c6.45-13.68,12.5-25.394,15.044-29.521C33.528-2.4,40.5-.136,44.18,3.793Z" transform="translate(81.411 9.717)" fill="#b28b67" fill-rule="evenodd"></path>
          <path id="LegLower" d="M0,72.8,3.331,6.724C5.732-4.7,26.051.6,26.043,6.724c-.019,13.9-8.369,61.917-8.374,66.058Z" transform="translate(106.844 5.226) rotate(20)" fill="#323861" fill-rule="evenodd"></path>
          <g id="Accessories_Shoe_Flat-Sneaker" data-name="Accessories/Shoe/Flat-Sneaker" transform="translate(81.547 76.591) rotate(30)">
            <path id="shoe" d="M1.092,3.951A13.976,13.976,0,0,0,0,8.314a32.66,32.66,0,0,0,.587,5.138H37.3q1.431-4.731-1.652-5.108t-5.122-.681L13.46.057a.651.651,0,0,0-.86.329L12.594.4,11.5,3.064A11.706,11.706,0,0,1,6.858,4.4a10.5,10.5,0,0,1-4-1.171h0a1.3,1.3,0,0,0-1.726.641Q1.109,3.907,1.092,3.951Z" transform="translate(0 0)" fill="#e4e4e4" fill-rule="evenodd"></path>
          </g>
          <g id="Accessories_Shoe_Flat-Sneaker-2" data-name="Accessories/Shoe/Flat-Sneaker" transform="translate(115.858 94.595)">
            <path id="shoe-2" data-name="shoe" d="M1.092,3.951A13.976,13.976,0,0,0,0,8.314a32.66,32.66,0,0,0,.587,5.138H37.3q1.431-4.731-1.652-5.108t-5.122-.681L13.46.057a.651.651,0,0,0-.86.329L12.594.4,11.5,3.064A11.706,11.706,0,0,1,6.858,4.4a10.5,10.5,0,0,1-4-1.171h0a1.3,1.3,0,0,0-1.726.641Q1.109,3.907,1.092,3.951Z" transform="translate(0 0)" fill="#e4e4e4" fill-rule="evenodd"></path>
          </g>
          <path id="Leg-and-Butt" d="M111.152,23.714c0,17.292-8.212,57.628-8.217,61.435l-17.669.014q3.879-53.987,2.751-54.568c-1.128-.582-46.246,4.5-59.778,4.5C8.727,35.1.655,22.794,0,0H38.654c7.87.842,48.922,9.122,64.168,11.969C109.349,13.187,111.152,18.95,111.152,23.714Z" transform="translate(30.592 0)" fill="#40477b" fill-rule="evenodd"></path>
        </g>
        <g id="Body_Pointing-Forward" data-name="Body/Pointing-Forward" transform="translate(22.276 43.609)">
          <path id="Skin-3" data-name="Skin" d="M0,23.049,22.592,10.676A55.888,55.888,0,0,1,33.7.281c1.114-.465,3.063-.747,1.24,2.487s-3.593,6.718-2.665,7.714,3.243-.4,4.351,1.26q1.107,1.655-11.864,5.23L8.343,32Zm35.384,10.44,9.924-5.452q2.089-7.948,4.993-8c1.488-.692-1.1,6,1.717,5.422s9.7-5.7,10.889-4.66c1.755,1.538.19,6.259-1.653,8.608-3.445,4.39-6.3,5.891-13.348,7.857a38.76,38.76,0,0,0-11.957,6.181Z" transform="translate(52.991 4.744)" fill="#997659" fill-rule="evenodd"></path>
          <path id="Sleeve" d="M3.583,4.142A55.512,55.512,0,0,0,34.335,0l2.825,10.431c-8.877,6.4-20.653,10.944-30.042,9.186A8.626,8.626,0,0,1,3.583,4.142Z" transform="translate(37.802 21.506) rotate(-9)" fill="#631978" fill-rule="evenodd"></path>
          <path id="Clothes" d="M52.644,40.851q12.6,3.143,42.263-7.412,7.357,15.221,6.8,21.7C84.746,64,70.206,67.953,58.228,68.214c.381,7.108-.484,13.871-3.391,20.05-5.975,12.7-40.96.939-52.723,3.254C-5.252,67.6,8.991,57.873,9,42.566,9.015,25.8,22.476,0,24.456,0h18.06C43.512,12.8,48.528,26.912,52.644,40.851Z" transform="translate(0 0)" fill="#8e24aa" fill-rule="evenodd"></path>
        </g>
      </g>
    </g>
  </g>
</svg>
